<?xml version="1.0" standalone="no"?>
<!DOCTYPE svg PUBLIC "-//W3C//DTD SVG 20010904//EN"
 "http://www.w3.org/TR/2001/REC-SVG-20010904/DTD/svg10.dtd">
<svg version="1.0" xmlns="http://www.w3.org/2000/svg"
 width="700.000000pt" height="700.000000pt" viewBox="0 0 700.000000 700.000000"
 preserveAspectRatio="xMidYMid meet">
<metadata>
Created by potrace 1.11, written by Peter Selinger 2001-2013
</metadata>
<g transform="translate(0.000000,700.000000) scale(0.100000,-0.100000)"
fill="#000000" stroke="none">
<path d="M1540 6257 c-3 -3 -30 -7 -60 -10 -129 -14 -321 -88 -442 -170 -72
-49 -88 -67 -98 -110 -6 -29 -3 -43 16 -75 43 -72 109 -78 195 -17 68 48 186
102 275 126 88 23 274 34 339 19 22 -5 55 -11 73 -15 89 -15 223 -78 317 -147
239 -177 390 -460 411 -768 10 -147 10 -148 118 -211 201 -118 360 -367 392
-619 55 -419 -172 -813 -539 -941 -45 -16 -90 -29 -100 -29 -42 0 -74 -31
-127 -120 -117 -197 -286 -332 -482 -383 l-54 -14 0 484 1 484 50 47 c28 26
87 81 131 122 44 41 116 107 160 147 222 202 226 206 231 255 6 54 -7 82 -50
108 -42 26 -88 25 -123 -2 -24 -18 -170 -149 -249 -223 -97 -91 -145 -133
-147 -127 0 4 -2 162 -4 352 -1 190 -2 359 -3 377 -1 33 -47 92 -73 94 -7 0
-22 2 -32 4 -30 6 -83 -20 -103 -51 -17 -27 -18 -67 -19 -701 -1 -371 -3 -675
-5 -677 -2 -3 -33 23 -69 57 -112 106 -263 243 -308 281 -34 28 -53 36 -82 36
-77 0 -136 -84 -107 -152 15 -34 27 -47 232 -233 66 -60 147 -135 180 -166 33
-31 82 -77 109 -101 l49 -45 0 -181 c0 -100 -2 -185 -5 -188 -12 -11 -146 29
-221 66 -150 75 -251 173 -349 339 -58 99 -66 106 -133 122 -64 15 -180 68
-242 110 -141 96 -278 290 -323 459 -31 114 -38 171 -35 285 8 303 142 555
376 711 38 25 76 56 84 68 8 12 16 62 19 121 9 160 43 299 101 418 44 89 49
117 32 159 -19 46 -85 80 -129 67 -48 -13 -68 -37 -113 -134 -64 -134 -111
-315 -118 -447 -3 -55 -5 -59 -48 -89 -68 -48 -199 -186 -250 -264 -77 -118
-143 -276 -163 -390 -3 -16 -8 -41 -12 -55 -3 -14 -7 -86 -9 -160 -2 -122 1
-159 29 -308 11 -55 64 -191 102 -261 85 -155 203 -286 341 -377 78 -53 228
-124 259 -124 7 0 25 -19 40 -42 68 -112 98 -149 191 -240 75 -74 134 -116
224 -163 109 -56 176 -79 287 -98 45 -7 62 -15 63 -26 1 -29 1 -266 0 -291 -1
-21 -14 -31 -71 -58 -67 -33 -155 -107 -210 -179 -21 -28 -36 -35 -100 -48
-230 -46 -422 -234 -465 -454 -4 -22 -31 -50 -48 -51 -21 0 -138 -90 -192
-146 -82 -84 -132 -171 -178 -306 -5 -15 -20 -18 -97 -18 -103 0 -141 -14
-165 -60 -19 -36 -19 -61 0 -106 29 -70 -279 -64 3500 -62 l3415 3 30 30 c35
36 44 86 22 132 -31 65 -1 63 -836 63 l-756 0 0 355 c0 308 2 355 15 356 8 1
18 2 23 3 4 1 23 6 42 10 187 41 364 139 506 283 72 72 184 220 184 243 0 4
37 20 83 35 380 126 646 434 734 849 22 102 24 351 4 451 -58 295 -226 564
-451 723 -36 25 -66 46 -67 46 -1 1 -4 28 -8 61 -37 337 -165 608 -397 836
-314 309 -757 411 -1176 269 -125 -43 -223 -99 -246 -141 -36 -66 5 -151 80
-165 27 -5 51 2 118 34 248 120 470 137 712 57 237 -79 467 -293 579 -539 32
-71 61 -152 71 -197 15 -73 25 -143 30 -214 3 -44 7 -89 9 -101 6 -25 44 -65
82 -84 139 -71 273 -217 358 -388 106 -214 122 -513 40 -733 -109 -292 -315
-485 -595 -559 -47 -12 -93 -29 -102 -37 -9 -8 -38 -53 -64 -100 -105 -186
-282 -329 -488 -392 -37 -12 -70 -21 -72 -21 -2 0 -4 231 -4 513 l0 512 63 57
c34 31 78 71 98 89 77 73 274 254 389 359 49 45 63 100 39 153 -12 26 -74 64
-99 61 -8 -1 -23 -2 -32 -3 -22 -1 -55 -31 -397 -348 l-56 -51 -5 401 c-5 382
-6 403 -25 429 -38 51 -97 62 -153 28 -18 -11 -37 -32 -43 -48 -8 -18 -11
-246 -12 -730 0 -386 -3 -702 -6 -702 -3 0 -28 21 -56 47 -337 311 -357 329
-383 342 -30 16 -93 6 -119 -18 -35 -33 -48 -78 -33 -119 15 -43 20 -48 349
-347 30 -28 85 -78 121 -112 37 -35 80 -74 96 -88 l29 -25 1 -201 1 -200 -44
6 c-127 17 -289 104 -403 215 -84 82 -130 142 -180 237 -35 67 -51 78 -154
108 -344 98 -597 460 -599 859 -2 331 170 644 439 801 50 28 61 59 67 180 4
61 8 119 11 130 35 162 71 265 130 366 50 88 60 103 69 110 13 10 12 86 -2
112 -33 62 -119 75 -176 26 -32 -28 -51 -58 -127 -199 -54 -100 -107 -272
-123 -400 -4 -30 -8 -64 -10 -75 -2 -11 -4 -34 -4 -50 -1 -25 -12 -39 -68 -82
-376 -287 -532 -823 -376 -1293 47 -140 148 -316 237 -411 112 -120 260 -221
402 -274 l84 -32 53 -79 c72 -110 148 -195 239 -268 133 -107 324 -193 468
-211 30 -4 58 -11 61 -17 3 -5 6 -164 6 -354 l-1 -345 -35 3 -35 3 -12 70
c-41 238 -181 427 -395 534 -45 23 -88 41 -95 41 -8 0 -14 5 -14 11 0 15 -78
127 -119 173 -71 76 -220 166 -307 184 -35 7 -39 11 -59 72 -44 131 -118 239
-218 318 -202 161 -452 200 -687 107 -110 -44 -247 -155 -306 -249 -27 -42
-28 -43 -107 -55 -188 -29 -333 -115 -454 -268 l-40 -51 -29 61 c-39 82 -159
204 -240 245 -64 32 -155 62 -201 65 l-28 2 -1 152 -1 151 36 8 c20 4 45 9 56
11 11 2 43 11 70 20 209 68 409 222 536 413 56 84 57 85 120 103 245 71 477
272 602 523 34 67 101 244 92 244 -2 0 1 15 6 32 25 89 31 329 10 429 -6 30
-14 67 -16 81 -8 45 -42 142 -74 212 -71 157 -225 343 -354 429 -31 21 -57 46
-58 55 0 9 -2 24 -3 32 -2 8 -6 39 -10 68 -16 131 -60 271 -127 405 -172 344
-478 578 -836 640 -77 14 -273 23 -283 14z m1990 -3963 c61 -10 154 -59 211
-112 78 -71 134 -183 145 -289 3 -36 28 -79 53 -93 9 -4 45 -14 81 -20 152
-27 268 -113 339 -249 47 -91 62 -105 120 -121 116 -31 236 -118 299 -218 32
-50 72 -160 72 -199 l0 -23 -880 0 c-580 0 -880 3 -880 10 0 37 -42 166 -73
225 -59 111 -193 232 -300 272 -35 13 -51 27 -76 69 -17 29 -63 81 -101 117
-39 36 -70 69 -70 75 0 6 26 37 58 70 96 100 186 141 325 148 49 2 101 10 115
16 16 8 41 39 62 78 104 191 287 280 500 244z m-1654 -320 c103 -49 175 -145
196 -264 14 -83 46 -114 129 -129 120 -21 214 -90 262 -191 32 -70 49 -85 122
-110 62 -21 140 -67 165 -97 56 -66 100 -151 100 -194 0 -18 -38 -19 -1165
-19 -689 0 -1165 4 -1165 9 0 20 48 97 88 142 51 57 142 120 209 144 60 21 89
60 97 130 15 114 67 207 150 265 63 43 118 61 204 66 92 5 122 21 153 81 88
173 287 247 455 167z"/>
</g>
</svg>
